<svg width="35" height="31" viewBox="0 0 35 31" fill="none" xmlns="http://www.w3.org/2000/svg">
<path d="M1.35887e-07 9.24274C-0.000210462 8.01464 0.24437 6.79882 0.719446 5.66633C1.19452 4.53383 1.89057 3.5074 2.76689 2.647C3.64322 1.7866 4.68226 1.10951 5.82328 0.655293C6.96429 0.201075 8.1844 -0.0211578 9.41229 0.00158481C10.8651 -0.00613069 12.303 0.295025 13.6307 0.885092C14.9583 1.47516 16.1454 2.34066 17.1133 3.42424C18.0811 2.34066 19.2682 1.47516 20.5958 0.885092C21.9235 0.295025 23.3614 -0.00613069 24.8142 0.00158481C26.0421 -0.0211578 27.2622 0.201075 28.4032 0.655293C29.5443 1.10951 30.5833 1.7866 31.4596 2.647C32.3359 3.5074 33.032 4.53383 33.5071 5.66633C33.9821 6.79882 34.2267 8.01464 34.2265 9.24274C34.2265 18.4086 23.31 25.3292 17.1133 30.8055C10.9302 25.283 1.35887e-07 18.4154 1.35887e-07 9.24274Z" fill="#282A37"/>
</svg>
